<svg id="svg" version="1.1" xmlns="http://www.w3.org/2000/svg" xmlns:xlink="http://www.w3.org/1999/xlink" width="400" height="60.40428061831154" viewBox="0, 0, 400,60.40428061831154"><g id="svgg"><path id="path0" d="M292.500 4.994 C 291.537 5.153,289.869 5.415,288.792 5.576 L 286.833 5.870 286.833 23.202 C 286.833 43.448,286.739 42.419,288.801 44.701 C 290.475 46.555,297.780 48.463,298.077 47.125 C 298.171 46.700,299.167 41.057,299.167 40.948 C 299.167 40.908,298.773 40.824,298.292 40.760 C 296.612 40.538,295.637 39.883,295.050 38.581 C 294.769 37.958,294.747 36.879,294.704 21.292 C 294.669 8.283,294.614 4.671,294.454 4.686 C 294.342 4.696,293.462 4.835,292.500 4.994 M49.583 7.260 C 49.400 7.302,48.837 7.420,48.333 7.521 C 41.526 8.890,37.630 16.827,40.587 23.297 L 41.217 24.675 40.885 25.046 C 40.702 25.250,38.577 27.767,36.164 30.640 C 32.145 35.424,31.739 35.856,31.346 35.771 C 31.110 35.720,30.354 35.556,29.667 35.406 C 18.329 32.933,11.184 48.186,20.261 55.487 C 29.727 63.103,43.088 52.948,37.989 42.012 L 37.490 40.941 37.997 40.345 C 38.276 40.018,39.010 39.143,39.627 38.401 C 45.562 31.271,47.075 29.500,47.233 29.502 C 47.334 29.503,47.781 29.614,48.227 29.749 C 50.949 30.575,54.576 29.995,57.170 28.318 L 58.208 27.647 59.646 28.523 C 60.436 29.005,62.150 30.078,63.454 30.908 C 64.757 31.738,67.195 33.274,68.870 34.322 C 70.546 35.370,72.817 36.800,73.917 37.499 C 75.017 38.198,76.807 39.328,77.896 40.010 C 78.985 40.692,80.897 41.890,82.146 42.673 L 84.417 44.095 84.420 46.339 C 84.441 59.565,102.225 62.745,106.757 50.333 C 107.368 48.661,107.519 45.793,107.083 44.162 C 106.925 43.569,106.760 42.928,106.717 42.739 C 106.656 42.466,107.050 42.036,108.611 40.673 C 109.696 39.727,111.371 38.260,112.333 37.414 C 119.488 31.123,122.393 28.656,122.559 28.729 C 125.977 30.252,128.695 30.516,131.565 29.605 C 142.238 26.216,142.250 11.227,131.583 7.720 C 123.327 5.005,114.760 12.914,116.926 21.250 C 117.069 21.800,117.226 22.408,117.274 22.601 C 117.358 22.931,114.965 25.119,107.817 31.250 C 107.390 31.617,106.012 32.817,104.756 33.917 C 103.500 35.017,102.267 36.084,102.017 36.289 L 101.563 36.661 100.386 36.166 C 96.468 34.520,93.327 34.868,89.063 37.420 L 88.543 37.731 85.897 36.055 C 83.384 34.465,80.069 32.381,74.961 29.183 C 73.703 28.395,71.549 27.037,70.175 26.167 C 68.802 25.296,66.480 23.833,65.015 22.917 L 62.353 21.250 62.450 19.407 C 62.743 13.873,59.260 8.996,54.000 7.575 C 53.070 7.324,50.193 7.118,49.583 7.260 M234.750 8.576 C 224.425 10.204,218.342 18.774,219.310 30.329 C 220.126 40.069,224.430 45.387,233.026 47.278 C 235.051 47.723,241.784 47.721,243.833 47.275 C 246.492 46.696,250.667 45.201,250.667 44.828 C 250.667 44.483,248.337 38.255,248.220 38.288 C 248.145 38.309,247.432 38.592,246.635 38.918 C 240.639 41.370,234.245 40.667,230.834 37.181 C 227.137 33.402,226.971 23.505,230.533 19.221 C 233.746 15.357,240.369 14.579,246.478 17.349 C 247.065 17.615,247.604 17.833,247.675 17.833 C 247.746 17.833,248.064 17.065,248.383 16.125 C 248.701 15.185,249.230 13.685,249.557 12.791 L 250.153 11.165 249.759 10.907 C 246.733 8.924,239.585 7.814,234.750 8.576 M160.000 9.270 C 158.321 9.369,154.046 9.832,152.750 10.056 L 151.583 10.258 151.541 29.465 L 151.499 48.672 156.208 48.628 L 160.917 48.583 160.960 42.292 L 161.004 36.000 161.544 35.997 C 174.587 35.920,180.650 32.230,181.310 23.967 C 182.149 13.466,174.804 8.400,160.000 9.270 M304.500 28.083 L 304.500 47.000 317.917 47.000 L 331.333 47.000 331.333 43.500 L 331.333 40.000 326.458 39.975 C 323.777 39.961,319.671 39.942,317.333 39.933 L 313.083 39.917 313.039 35.292 L 312.995 30.667 320.581 30.667 L 328.167 30.667 328.167 27.250 L 328.167 23.833 320.583 23.833 L 313.000 23.833 313.000 20.000 L 313.000 16.167 321.500 16.167 L 330.000 16.167 330.000 12.667 L 330.000 9.167 317.250 9.167 L 304.500 9.167 304.500 28.083 M169.088 10.731 C 176.944 12.081,180.238 15.558,180.238 22.500 C 180.238 31.083,174.813 34.833,162.399 34.833 L 159.833 34.833 159.833 41.167 L 159.833 47.500 156.167 47.500 L 152.500 47.500 152.500 29.351 L 152.500 11.203 154.375 10.926 C 158.627 10.297,165.998 10.200,169.088 10.731 M160.375 16.621 L 159.833 16.688 159.833 22.677 L 159.833 28.667 162.405 28.667 C 169.815 28.667,172.676 26.910,172.665 22.367 C 172.653 17.819,168.052 15.668,160.375 16.621 M168.201 17.987 C 170.557 18.736,171.501 19.975,171.499 22.318 C 171.497 26.190,169.733 27.376,163.625 27.614 L 161.000 27.716 161.000 22.705 C 161.000 18.859,161.048 17.672,161.208 17.599 C 161.774 17.340,167.096 17.635,168.201 17.987 M264.833 17.614 C 262.636 17.740,257.838 18.521,257.330 18.836 C 257.163 18.939,257.213 19.570,257.570 21.858 C 258.172 25.722,257.985 25.355,259.165 24.988 C 263.257 23.714,268.280 23.939,270.029 25.475 C 271.203 26.505,271.948 29.629,271.000 29.547 C 270.771 29.527,269.739 29.418,268.708 29.305 C 259.063 28.247,253.095 33.078,254.676 40.667 C 255.946 46.761,263.782 49.025,275.800 46.770 C 277.568 46.438,279.050 46.167,279.091 46.167 C 279.241 46.167,279.160 29.371,279.001 27.583 C 278.430 21.159,275.501 18.299,268.846 17.667 C 267.140 17.506,266.803 17.501,264.833 17.614 M375.167 17.607 C 371.267 17.890,367.434 18.704,367.556 19.225 C 367.602 19.422,367.845 20.858,368.096 22.417 C 368.347 23.975,368.563 25.266,368.575 25.285 C 368.587 25.304,369.060 25.176,369.626 25.000 C 373.813 23.697,378.905 23.961,380.558 25.567 C 381.731 26.707,382.448 29.908,381.458 29.582 C 379.898 29.070,373.375 29.341,371.191 30.009 C 365.525 31.743,363.183 37.439,365.918 42.836 C 368.285 47.508,376.957 48.829,388.712 46.308 L 389.517 46.135 389.461 36.109 C 389.399 25.033,389.390 24.929,388.241 22.641 C 386.392 18.957,381.663 17.136,375.167 17.607 M334.000 18.452 C 334.000 18.819,335.572 23.667,335.691 23.667 C 335.769 23.667,335.833 23.839,335.833 24.049 C 335.833 25.549,341.778 40.595,344.522 46.042 L 345.005 47.000 348.347 47.000 L 351.688 47.000 353.028 44.208 C 356.125 37.753,362.636 20.354,362.665 18.455 C 362.666 18.385,360.811 18.348,358.543 18.372 L 354.420 18.417 353.873 20.500 C 352.912 24.159,348.976 36.408,348.592 36.933 C 348.257 37.391,345.700 29.877,343.187 21.045 L 342.417 18.339 338.208 18.336 C 335.894 18.335,334.000 18.387,334.000 18.452 M183.893 19.082 C 183.945 19.218,184.252 20.249,184.574 21.373 C 186.434 27.853,189.925 36.864,193.266 43.807 C 194.876 47.153,194.826 46.904,194.142 48.188 C 192.783 50.737,190.562 51.374,186.683 50.328 C 185.933 50.125,185.291 49.987,185.257 50.021 C 185.206 50.073,184.932 51.328,183.729 57.006 C 183.448 58.333,190.906 59.162,194.462 58.198 C 196.760 57.575,198.814 55.926,200.525 53.333 C 203.880 48.245,209.730 33.322,213.936 19.125 C 214.017 18.852,213.718 18.833,209.268 18.833 L 204.513 18.833 204.349 19.458 C 204.259 19.802,203.997 20.833,203.767 21.750 C 202.864 25.345,199.543 36.346,199.281 36.608 C 199.210 36.679,197.926 33.219,196.952 30.333 C 196.420 28.759,194.437 22.234,193.747 19.792 L 193.476 18.833 188.637 18.833 C 184.419 18.833,183.810 18.865,183.893 19.082 M193.454 22.583 C 194.772 27.398,198.980 39.667,199.314 39.667 C 199.428 39.667,199.753 38.738,201.438 33.583 C 202.239 31.130,203.776 25.795,205.002 21.208 L 205.370 19.833 208.935 19.833 C 211.920 19.833,212.500 19.872,212.500 20.072 C 212.500 20.883,208.275 33.261,206.124 38.750 C 200.836 52.247,198.328 56.027,193.833 57.272 C 191.655 57.876,185.691 57.494,184.986 56.706 C 184.901 56.612,185.927 51.521,186.058 51.388 C 186.073 51.371,186.535 51.466,187.085 51.597 C 191.201 52.579,193.782 51.448,195.480 47.917 L 195.961 46.917 195.290 45.583 C 193.243 41.514,190.212 34.458,188.380 29.500 C 187.663 27.557,185.336 20.330,185.335 20.038 C 185.334 19.873,186.130 19.837,189.029 19.872 L 192.724 19.917 193.454 22.583 M270.833 34.807 L 271.417 34.930 271.462 37.911 C 271.517 41.489,271.752 41.195,268.746 41.297 C 264.325 41.447,262.781 40.733,262.402 38.362 C 261.937 35.453,265.926 33.771,270.833 34.807 M381.042 34.769 L 381.833 34.879 381.833 38.008 L 381.833 41.138 380.573 41.256 C 375.452 41.736,372.833 40.649,372.833 38.043 C 372.833 35.231,375.809 34.044,381.042 34.769 " stroke="none" fill="#343545" fill-rule="evenodd"></path><path id="path1" d="M291.667 5.006 C 291.398 5.095,291.575 5.111,292.167 5.050 C 292.671 4.998,293.115 4.928,293.153 4.894 C 293.286 4.777,292.080 4.868,291.667 5.006 M123.000 8.250 C 122.771 8.381,122.658 8.488,122.750 8.488 C 122.842 8.488,123.104 8.381,123.333 8.250 C 123.563 8.119,123.675 8.012,123.583 8.012 C 123.492 8.012,123.229 8.119,123.000 8.250 M237.542 8.290 C 238.160 8.322,239.173 8.322,239.792 8.290 C 240.410 8.258,239.904 8.232,238.667 8.232 C 237.429 8.232,236.923 8.258,237.542 8.290 M235.208 8.448 C 235.369 8.490,235.631 8.490,235.792 8.448 C 235.952 8.406,235.821 8.372,235.500 8.372 C 235.179 8.372,235.048 8.406,235.208 8.448 M316.627 9.118 C 316.834 9.158,317.134 9.156,317.294 9.115 C 317.453 9.073,317.283 9.040,316.917 9.042 C 316.550 9.044,316.420 9.078,316.627 9.118 M159.708 9.286 C 159.960 9.324,160.373 9.324,160.625 9.286 C 160.877 9.248,160.671 9.217,160.167 9.217 C 159.662 9.217,159.456 9.248,159.708 9.286 M165.708 9.282 C 165.869 9.323,166.131 9.323,166.292 9.282 C 166.452 9.240,166.321 9.205,166.000 9.205 C 165.679 9.205,165.548 9.240,165.708 9.282 M330.038 12.623 L 330.000 16.164 321.458 16.208 L 312.917 16.253 321.464 16.293 C 328.273 16.325,330.027 16.290,330.092 16.120 C 330.137 16.003,330.152 14.372,330.125 12.495 L 330.076 9.083 330.038 12.623 M304.414 28.167 C 304.414 38.571,304.434 42.827,304.458 37.625 C 304.483 32.423,304.483 23.910,304.458 18.708 C 304.434 13.506,304.414 17.762,304.414 28.167 M59.167 10.583 C 59.665 11.088,60.109 11.500,60.155 11.500 C 60.201 11.500,59.831 11.088,59.333 10.583 C 58.835 10.079,58.391 9.667,58.345 9.667 C 58.299 9.667,58.669 10.079,59.167 10.583 M119.828 10.625 L 118.917 11.583 119.875 10.672 C 120.402 10.171,120.833 9.740,120.833 9.714 C 120.833 9.590,120.674 9.735,119.828 10.625 M151.410 10.375 C 151.367 10.490,151.350 19.171,151.374 29.667 L 151.417 48.750 151.500 29.458 C 151.546 18.848,151.562 10.167,151.536 10.167 C 151.511 10.167,151.454 10.260,151.410 10.375 M42.406 10.875 L 41.917 11.417 42.458 10.927 C 42.756 10.658,43.000 10.414,43.000 10.385 C 43.000 10.257,42.862 10.370,42.406 10.875 M158.083 10.504 C 157.075 10.583,155.406 10.773,154.375 10.926 L 152.500 11.203 152.500 29.351 L 152.500 47.500 156.167 47.500 L 159.833 47.500 159.833 41.167 L 159.833 34.833 162.399 34.833 C 174.813 34.833,180.238 31.083,180.238 22.500 C 180.238 13.127,173.188 9.309,158.083 10.504 M174.681 11.229 C 174.852 11.382,175.833 11.833,175.833 11.759 C 175.833 11.663,174.909 11.167,174.730 11.167 C 174.665 11.167,174.642 11.195,174.681 11.229 M178.250 13.667 C 178.608 14.033,178.938 14.333,178.984 14.333 C 179.030 14.333,178.775 14.033,178.417 13.667 C 178.059 13.300,177.728 13.000,177.682 13.000 C 177.637 13.000,177.892 13.300,178.250 13.667 M237.963 15.789 C 238.355 15.824,238.955 15.824,239.296 15.788 C 239.637 15.752,239.317 15.723,238.583 15.724 C 237.850 15.724,237.571 15.754,237.963 15.789 M167.352 16.738 C 170.852 17.362,172.657 19.275,172.665 22.367 C 172.676 26.910,169.815 28.667,162.405 28.667 L 159.833 28.667 159.833 22.677 L 159.833 16.688 160.375 16.621 C 161.722 16.453,166.177 16.528,167.352 16.738 M62.552 18.417 C 62.553 18.967,62.584 19.172,62.621 18.872 C 62.658 18.572,62.657 18.122,62.619 17.872 C 62.581 17.622,62.551 17.867,62.552 18.417 M116.539 18.000 C 116.539 18.321,116.573 18.452,116.615 18.292 C 116.657 18.131,116.657 17.869,116.615 17.708 C 116.573 17.548,116.539 17.679,116.539 18.000 M162.458 17.624 C 163.123 17.655,164.210 17.655,164.875 17.624 C 165.540 17.592,164.996 17.566,163.667 17.566 C 162.337 17.566,161.794 17.592,162.458 17.624 M263.955 17.620 C 264.250 17.657,264.775 17.658,265.121 17.622 C 265.467 17.586,265.225 17.555,264.583 17.555 C 263.942 17.554,263.659 17.583,263.955 17.620 M268.208 17.619 C 268.460 17.658,268.873 17.658,269.125 17.619 C 269.377 17.581,269.171 17.550,268.667 17.550 C 268.162 17.550,267.956 17.581,268.208 17.619 M374.458 17.621 C 374.756 17.658,375.244 17.658,375.542 17.621 C 375.840 17.584,375.596 17.553,375.000 17.553 C 374.404 17.553,374.160 17.584,374.458 17.621 M378.711 17.620 C 378.964 17.658,379.339 17.657,379.544 17.617 C 379.749 17.578,379.542 17.546,379.083 17.548 C 378.625 17.549,378.457 17.581,378.711 17.620 M166.542 17.782 C 166.702 17.823,166.965 17.823,167.125 17.782 C 167.285 17.740,167.154 17.705,166.833 17.705 C 166.512 17.705,166.381 17.740,166.542 17.782 M262.375 17.782 C 262.535 17.823,262.798 17.823,262.958 17.782 C 263.119 17.740,262.987 17.705,262.667 17.705 C 262.346 17.705,262.215 17.740,262.375 17.782 M372.875 17.782 C 373.035 17.823,373.298 17.823,373.458 17.782 C 373.619 17.740,373.488 17.705,373.167 17.705 C 372.846 17.705,372.715 17.740,372.875 17.782 M333.836 18.458 C 333.838 18.663,333.877 18.689,333.969 18.545 C 334.065 18.393,335.205 18.327,338.341 18.292 L 342.583 18.244 338.208 18.205 C 334.137 18.169,333.834 18.187,333.836 18.458 M354.442 18.292 C 354.400 18.360,356.208 18.395,358.461 18.369 C 361.656 18.332,362.586 18.369,362.692 18.536 C 362.792 18.693,362.829 18.673,362.831 18.458 C 362.833 18.150,354.631 17.987,354.442 18.292 M116.542 19.250 C 116.544 19.617,116.578 19.747,116.618 19.540 C 116.658 19.332,116.656 19.032,116.615 18.873 C 116.573 18.714,116.540 18.883,116.542 19.250 M183.777 18.789 C 183.734 18.859,185.879 18.896,188.545 18.870 C 192.335 18.833,193.424 18.870,193.541 19.037 C 193.656 19.199,193.676 19.190,193.624 19.000 C 193.549 18.727,183.943 18.521,183.777 18.789 M204.444 18.778 C 204.383 18.839,204.334 18.970,204.336 19.069 C 204.337 19.178,204.390 19.169,204.469 19.044 C 204.567 18.891,205.805 18.827,209.342 18.792 L 214.083 18.745 209.319 18.706 C 206.699 18.684,204.506 18.717,204.444 18.778 M362.429 19.262 C 362.367 19.506,362.349 19.738,362.389 19.777 C 362.428 19.817,362.510 19.649,362.571 19.405 C 362.633 19.161,362.651 18.929,362.611 18.889 C 362.572 18.850,362.490 19.018,362.429 19.262 M185.335 20.038 C 185.336 20.330,187.663 27.557,188.380 29.500 C 190.212 34.458,193.243 41.514,195.290 45.583 L 195.961 46.917 195.480 47.917 C 193.782 51.448,191.201 52.579,187.085 51.597 C 186.535 51.466,186.073 51.371,186.058 51.388 C 185.927 51.521,184.901 56.612,184.986 56.706 C 185.691 57.494,191.655 57.876,193.833 57.272 C 198.328 56.027,200.836 52.247,206.124 38.750 C 208.275 33.261,212.500 20.883,212.500 20.072 C 212.500 19.872,211.920 19.833,208.935 19.833 L 205.370 19.833 205.002 21.208 C 203.776 25.795,202.239 31.130,201.438 33.583 C 199.753 38.738,199.428 39.667,199.314 39.667 C 198.980 39.667,194.772 27.398,193.454 22.583 L 192.724 19.917 189.029 19.872 C 186.130 19.837,185.334 19.873,185.335 20.038 M276.333 20.583 C 276.644 20.904,276.936 21.167,276.982 21.167 C 277.028 21.167,276.811 20.904,276.500 20.583 C 276.189 20.262,275.897 20.000,275.851 20.000 C 275.805 20.000,276.022 20.262,276.333 20.583 M181.381 21.583 C 181.382 22.042,181.415 22.209,181.453 21.956 C 181.491 21.703,181.490 21.328,181.451 21.123 C 181.411 20.918,181.380 21.125,181.381 21.583 M388.283 22.748 C 388.435 23.068,388.589 23.300,388.625 23.263 C 388.702 23.187,388.196 22.167,388.082 22.167 C 388.040 22.167,388.130 22.428,388.283 22.748 M181.381 23.417 C 181.382 23.875,181.415 24.043,181.453 23.789 C 181.491 23.536,181.490 23.161,181.451 22.956 C 181.411 22.751,181.380 22.958,181.381 23.417 M40.343 23.048 C 40.338 23.121,40.492 23.492,40.687 23.872 C 40.981 24.450,41.006 24.622,40.835 24.907 C 40.638 25.235,40.642 25.237,40.933 24.959 C 41.226 24.678,41.221 24.638,40.795 23.793 C 40.552 23.311,40.349 22.976,40.343 23.048 M116.573 23.542 L 116.083 24.083 116.625 23.594 C 116.923 23.325,117.167 23.081,117.167 23.052 C 117.167 22.923,117.029 23.037,116.573 23.542 M212.429 23.929 C 212.367 24.173,212.349 24.405,212.389 24.444 C 212.428 24.483,212.510 24.316,212.571 24.071 C 212.633 23.827,212.651 23.595,212.611 23.556 C 212.572 23.517,212.490 23.684,212.429 23.929 M316.803 23.792 C 318.941 23.818,322.391 23.818,324.470 23.791 C 326.549 23.765,324.800 23.743,320.583 23.743 C 316.367 23.744,314.666 23.765,316.803 23.792 M219.372 24.333 C 219.372 24.654,219.406 24.785,219.448 24.625 C 219.490 24.465,219.490 24.202,219.448 24.042 C 219.406 23.881,219.372 24.012,219.372 24.333 M115.406 24.542 L 114.917 25.083 115.458 24.594 C 115.756 24.325,116.000 24.081,116.000 24.052 C 116.000 23.923,115.862 24.037,115.406 24.542 M170.903 24.939 C 170.713 25.331,170.620 25.612,170.696 25.565 C 170.894 25.443,171.364 24.502,171.302 24.353 C 171.273 24.284,171.094 24.548,170.903 24.939 M263.788 24.287 C 264.084 24.324,264.609 24.324,264.955 24.288 C 265.300 24.252,265.058 24.222,264.417 24.221 C 263.775 24.221,263.492 24.250,263.788 24.287 M266.211 24.286 C 266.464 24.325,266.839 24.324,267.044 24.284 C 267.249 24.244,267.042 24.213,266.583 24.214 C 266.125 24.216,265.957 24.248,266.211 24.286 M374.292 24.287 C 374.590 24.324,375.077 24.324,375.375 24.287 C 375.673 24.250,375.429 24.220,374.833 24.220 C 374.238 24.220,373.994 24.250,374.292 24.287 M376.625 24.284 C 376.831 24.324,377.169 24.324,377.375 24.284 C 377.581 24.245,377.412 24.212,377.000 24.212 C 376.587 24.212,376.419 24.245,376.625 24.284 M219.209 25.917 C 219.211 26.283,219.245 26.414,219.285 26.206 C 219.324 25.999,219.323 25.699,219.281 25.540 C 219.239 25.380,219.207 25.550,219.209 25.917 M112.740 26.875 L 112.250 27.417 112.792 26.927 C 113.090 26.658,113.333 26.414,113.333 26.385 C 113.333 26.257,113.196 26.370,112.740 26.875 M111.573 27.875 L 111.083 28.417 111.625 27.927 C 111.923 27.658,112.167 27.414,112.167 27.385 C 112.167 27.257,112.029 27.370,111.573 27.875 M165.708 27.448 C 165.869 27.490,166.131 27.490,166.292 27.448 C 166.452 27.406,166.321 27.372,166.000 27.372 C 165.679 27.372,165.548 27.406,165.708 27.448 M279.045 28.000 C 279.045 28.412,279.078 28.581,279.118 28.375 C 279.157 28.169,279.157 27.831,279.118 27.625 C 279.078 27.419,279.045 27.587,279.045 28.000 M161.958 27.623 C 162.531 27.656,163.469 27.656,164.042 27.623 C 164.615 27.591,164.146 27.564,163.000 27.564 C 161.854 27.564,161.385 27.591,161.958 27.623 M381.705 28.167 C 381.705 28.488,381.740 28.619,381.782 28.458 C 381.823 28.298,381.823 28.035,381.782 27.875 C 381.740 27.715,381.705 27.846,381.705 28.167 M196.346 28.429 C 196.328 28.680,196.857 30.198,196.935 30.121 C 196.970 30.085,196.855 29.650,196.678 29.153 C 196.502 28.656,196.352 28.330,196.346 28.429 M271.353 29.029 C 271.341 29.303,271.221 29.505,271.042 29.552 C 270.768 29.623,270.769 29.629,271.047 29.647 C 271.385 29.669,271.565 29.329,271.450 28.885 C 271.398 28.682,271.366 28.730,271.353 29.029 M264.208 29.282 C 264.369 29.323,264.631 29.323,264.792 29.282 C 264.952 29.240,264.821 29.205,264.500 29.205 C 264.179 29.205,264.048 29.240,264.208 29.282 M46.734 29.875 C 46.419 30.247,46.419 30.248,46.750 29.976 C 46.933 29.825,47.233 29.665,47.417 29.620 C 47.737 29.542,47.737 29.538,47.401 29.519 C 47.209 29.509,46.909 29.669,46.734 29.875 M187.262 29.833 C 187.324 30.063,187.443 30.363,187.528 30.500 C 187.635 30.674,187.649 30.623,187.571 30.333 C 187.510 30.104,187.390 29.804,187.305 29.667 C 187.198 29.493,187.185 29.544,187.262 29.833 M219.214 30.417 C 219.216 30.875,219.248 31.043,219.286 30.789 C 219.325 30.536,219.324 30.161,219.284 29.956 C 219.244 29.751,219.213 29.958,219.214 30.417 M49.208 30.115 C 49.369 30.157,49.631 30.157,49.792 30.115 C 49.952 30.073,49.821 30.039,49.500 30.039 C 49.179 30.039,49.048 30.073,49.208 30.115 M52.208 30.115 C 52.369 30.157,52.631 30.157,52.792 30.115 C 52.952 30.073,52.821 30.039,52.500 30.039 C 52.179 30.039,52.048 30.073,52.208 30.115 M126.375 30.115 C 126.535 30.157,126.798 30.157,126.958 30.115 C 127.119 30.073,126.987 30.039,126.667 30.039 C 126.346 30.039,126.215 30.073,126.375 30.115 M294.712 30.667 C 294.712 31.079,294.745 31.248,294.784 31.042 C 294.824 30.835,294.824 30.498,294.784 30.292 C 294.745 30.085,294.712 30.254,294.712 30.667 M369.292 30.595 C 368.645 30.946,368.719 31.067,369.375 30.733 C 370.003 30.414,370.114 30.331,369.903 30.340 C 369.819 30.344,369.544 30.459,369.292 30.595 M178.077 31.542 L 177.250 32.417 178.125 31.590 C 178.606 31.135,179.000 30.741,179.000 30.715 C 179.000 30.590,178.846 30.729,178.077 31.542 M219.372 32.167 C 219.372 32.487,219.406 32.619,219.448 32.458 C 219.490 32.298,219.490 32.035,219.448 31.875 C 219.406 31.715,219.372 31.846,219.372 32.167 M366.991 32.292 L 366.417 32.917 367.042 32.342 C 367.623 31.808,367.743 31.667,367.616 31.667 C 367.588 31.667,367.307 31.948,366.991 32.292 M106.240 32.542 L 105.750 33.083 106.292 32.594 C 106.590 32.325,106.833 32.081,106.833 32.052 C 106.833 31.923,106.696 32.037,106.240 32.542 M82.250 33.753 C 82.433 33.902,82.733 34.098,82.917 34.188 L 83.250 34.352 82.917 34.080 C 82.733 33.931,82.433 33.735,82.250 33.645 L 81.917 33.482 82.250 33.753 M200.095 33.929 C 200.034 34.173,200.016 34.405,200.055 34.444 C 200.094 34.483,200.177 34.316,200.238 34.071 C 200.299 33.827,200.317 33.595,200.278 33.556 C 200.239 33.517,200.157 33.684,200.095 33.929 M115.073 35.042 L 114.583 35.583 115.125 35.094 C 115.423 34.825,115.667 34.581,115.667 34.552 C 115.667 34.423,115.529 34.537,115.073 35.042 M267.458 34.621 C 267.756 34.658,268.244 34.658,268.542 34.621 C 268.840 34.584,268.596 34.553,268.000 34.553 C 267.404 34.553,267.160 34.584,267.458 34.621 M377.792 34.621 C 378.090 34.658,378.577 34.658,378.875 34.621 C 379.173 34.584,378.929 34.553,378.333 34.553 C 377.738 34.553,377.494 34.584,377.792 34.621 M271.250 38.000 C 271.250 39.724,271.306 41.100,271.375 41.058 C 271.444 41.015,271.500 39.639,271.500 38.000 C 271.500 36.361,271.444 34.985,271.375 34.942 C 271.306 34.900,271.250 36.276,271.250 38.000 M102.406 35.875 L 101.917 36.417 102.458 35.927 C 102.756 35.658,103.000 35.414,103.000 35.385 C 103.000 35.257,102.862 35.370,102.406 35.875 M263.240 35.875 L 262.750 36.417 263.292 35.927 C 263.797 35.471,263.910 35.333,263.781 35.333 C 263.752 35.333,263.509 35.577,263.240 35.875 M166.875 35.782 C 167.035 35.823,167.298 35.823,167.458 35.782 C 167.619 35.740,167.487 35.705,167.167 35.705 C 166.846 35.705,166.715 35.740,166.875 35.782 M163.796 35.956 C 164.188 35.991,164.788 35.990,165.129 35.954 C 165.471 35.919,165.150 35.890,164.417 35.890 C 163.683 35.891,163.404 35.920,163.796 35.956 M294.712 36.667 C 294.712 37.079,294.745 37.248,294.784 37.042 C 294.824 36.835,294.824 36.498,294.784 36.292 C 294.745 36.085,294.712 36.254,294.712 36.667 M112.573 37.208 L 112.083 37.750 112.625 37.260 C 112.923 36.991,113.167 36.748,113.167 36.719 C 113.167 36.590,113.029 36.703,112.573 37.208 M230.833 37.250 C 231.144 37.571,231.436 37.833,231.482 37.833 C 231.528 37.833,231.311 37.571,231.000 37.250 C 230.689 36.929,230.397 36.667,230.351 36.667 C 230.305 36.667,230.522 36.929,230.833 37.250 M254.379 37.500 C 254.379 37.912,254.411 38.081,254.451 37.875 C 254.491 37.669,254.491 37.331,254.451 37.125 C 254.411 36.919,254.379 37.087,254.379 37.500 M262.375 37.917 C 262.377 38.283,262.411 38.414,262.451 38.206 C 262.491 37.999,262.490 37.699,262.448 37.540 C 262.406 37.380,262.374 37.550,262.375 37.917 M355.860 37.757 C 355.581 38.370,355.634 38.501,355.936 37.944 C 356.077 37.683,356.162 37.439,356.123 37.401 C 356.085 37.363,355.967 37.523,355.860 37.757 M254.375 38.917 C 254.377 39.283,254.411 39.414,254.451 39.206 C 254.491 38.999,254.490 38.699,254.448 38.540 C 254.406 38.380,254.374 38.550,254.375 38.917 M295.667 39.564 C 296.102 40.052,296.973 40.583,297.111 40.444 C 297.156 40.400,297.031 40.313,296.835 40.251 C 296.639 40.188,296.202 39.903,295.864 39.616 C 295.288 39.128,295.276 39.124,295.667 39.564 M314.542 39.957 C 315.344 39.988,316.656 39.988,317.458 39.957 C 318.260 39.927,317.604 39.902,316.000 39.902 C 314.396 39.902,313.740 39.927,314.542 39.957 M324.042 39.958 C 325.394 39.986,327.606 39.986,328.958 39.958 C 330.310 39.930,329.204 39.907,326.500 39.907 C 323.796 39.907,322.690 39.930,324.042 39.958 M241.627 40.118 C 241.834 40.158,242.134 40.156,242.294 40.115 C 242.453 40.073,242.283 40.040,241.917 40.042 C 241.550 40.044,241.420 40.078,241.627 40.118 M238.042 40.290 C 238.569 40.323,239.431 40.323,239.958 40.290 C 240.485 40.257,240.054 40.230,239.000 40.230 C 237.946 40.230,237.515 40.257,238.042 40.290 M37.587 40.827 C 37.532 40.916,37.674 41.347,37.903 41.786 C 38.131 42.224,38.321 42.524,38.326 42.452 C 38.330 42.379,38.180 42.020,37.994 41.654 C 37.807 41.288,37.699 40.916,37.754 40.828 C 37.808 40.739,37.816 40.667,37.770 40.667 C 37.724 40.667,37.642 40.739,37.587 40.827 M379.875 41.282 C 380.035 41.323,380.298 41.323,380.458 41.282 C 380.619 41.240,380.488 41.205,380.167 41.205 C 379.846 41.205,379.715 41.240,379.875 41.282 M224.000 42.750 C 224.311 43.071,224.603 43.333,224.649 43.333 C 224.695 43.333,224.478 43.071,224.167 42.750 C 223.856 42.429,223.564 42.167,223.518 42.167 C 223.472 42.167,223.689 42.429,224.000 42.750 M365.500 42.230 C 365.500 42.409,365.996 43.333,366.092 43.333 C 366.138 43.333,366.051 43.090,365.900 42.792 C 365.590 42.183,365.500 42.056,365.500 42.230 M366.667 44.219 C 366.667 44.248,366.910 44.491,367.208 44.760 L 367.750 45.250 367.260 44.708 C 366.804 44.203,366.667 44.090,366.667 44.219 M107.389 46.667 C 107.389 47.354,107.419 47.635,107.455 47.292 C 107.491 46.948,107.491 46.385,107.455 46.042 C 107.419 45.698,107.389 45.979,107.389 46.667 M290.000 45.749 C 290.000 45.862,291.354 46.535,291.429 46.460 C 291.464 46.425,291.157 46.233,290.746 46.034 C 290.336 45.834,290.000 45.706,290.000 45.749 M265.792 47.624 C 266.456 47.655,267.544 47.655,268.208 47.624 C 268.873 47.592,268.329 47.566,267.000 47.566 C 265.671 47.566,265.127 47.592,265.792 47.624 M376.292 47.624 C 376.956 47.655,378.044 47.655,378.708 47.624 C 379.373 47.592,378.829 47.566,377.500 47.566 C 376.171 47.566,375.627 47.592,376.292 47.624 M192.991 49.625 L 192.417 50.250 193.042 49.676 C 193.385 49.360,193.667 49.078,193.667 49.051 C 193.667 48.923,193.526 49.043,192.991 49.625 M189.121 50.787 C 189.417 50.824,189.942 50.824,190.288 50.788 C 190.634 50.752,190.392 50.722,189.750 50.721 C 189.108 50.721,188.825 50.750,189.121 50.787 M25.542 58.115 C 25.702 58.157,25.965 58.157,26.125 58.115 C 26.285 58.073,26.154 58.039,25.833 58.039 C 25.512 58.039,25.381 58.073,25.542 58.115 M27.208 58.282 C 27.369 58.323,27.631 58.323,27.792 58.282 C 27.952 58.240,27.821 58.205,27.500 58.205 C 27.179 58.205,27.048 58.240,27.208 58.282 M95.627 58.285 C 95.834 58.324,96.134 58.323,96.294 58.281 C 96.453 58.239,96.283 58.207,95.917 58.209 C 95.550 58.211,95.420 58.245,95.627 58.285 M192.542 58.615 C 192.702 58.657,192.965 58.657,193.125 58.615 C 193.285 58.573,193.154 58.539,192.833 58.539 C 192.512 58.539,192.381 58.573,192.542 58.615 M189.708 58.789 C 190.144 58.824,190.856 58.824,191.292 58.789 C 191.727 58.755,191.371 58.727,190.500 58.727 C 189.629 58.727,189.273 58.755,189.708 58.789 " stroke="none" fill="#349c74" fill-rule="evenodd"></path><path id="path2" d="M0.000 30.167 L 0.000 60.333 200.000 60.333 L 400.000 60.333 400.000 30.167 L 400.000 0.000 200.000 0.000 L 0.000 0.000 0.000 30.167 M294.720 21.250 C 294.766 33.402,294.834 37.744,294.984 38.213 C 295.397 39.506,296.706 40.460,298.458 40.747 C 299.323 40.888,299.314 40.667,298.617 44.583 L 298.083 47.582 296.833 47.525 C 291.479 47.281,288.185 45.401,287.158 42.003 C 286.838 40.947,286.830 40.422,286.873 23.341 L 286.917 5.765 289.250 5.387 C 290.533 5.178,292.221 4.924,293.000 4.821 C 293.779 4.718,294.454 4.597,294.500 4.552 C 294.652 4.403,294.657 4.814,294.720 21.250 M53.583 7.400 C 59.578 8.732,63.763 15.085,62.393 20.771 C 62.319 21.079,62.715 21.382,65.362 23.042 C 68.473 24.992,75.043 29.122,80.750 32.714 C 82.492 33.810,84.984 35.378,86.289 36.198 L 88.661 37.688 89.227 37.256 C 92.192 34.994,96.858 34.502,100.416 36.076 C 100.943 36.309,101.443 36.500,101.526 36.500 C 101.608 36.500,103.975 34.494,106.786 32.042 C 114.461 25.344,115.651 24.311,116.524 23.583 C 117.127 23.082,117.303 22.834,117.235 22.583 C 117.185 22.400,117.021 21.837,116.869 21.333 C 115.824 17.858,117.137 13.302,119.991 10.500 C 127.384 3.240,139.644 8.391,139.664 18.765 C 139.680 27.118,130.582 32.829,123.198 29.101 L 122.417 28.706 119.083 31.624 C 111.756 38.040,107.116 42.092,106.905 42.262 C 106.722 42.410,106.745 42.630,107.031 43.512 C 108.235 47.216,106.986 51.883,104.000 54.833 C 96.464 62.281,83.904 56.678,84.372 46.076 L 84.453 44.230 79.185 40.918 C 76.287 39.096,72.829 36.918,71.500 36.077 C 70.171 35.237,67.733 33.700,66.083 32.662 C 64.433 31.625,62.036 30.114,60.757 29.304 C 58.071 27.607,58.291 27.660,57.140 28.420 C 54.553 30.126,51.019 30.661,47.944 29.812 L 47.139 29.590 46.402 30.445 C 42.774 34.655,37.664 40.914,37.731 41.063 C 39.419 44.839,39.596 47.789,38.327 50.959 C 35.222 58.714,25.332 60.702,19.404 54.765 C 11.181 46.528,19.153 32.558,30.403 35.490 C 31.128 35.679,31.737 35.815,31.756 35.792 C 31.775 35.769,33.866 33.275,36.404 30.250 C 39.243 26.865,40.987 24.655,40.938 24.500 C 40.894 24.363,40.653 23.762,40.403 23.167 C 36.755 14.497,44.394 5.360,53.583 7.400 M242.082 8.420 C 245.123 8.878,249.862 10.448,250.104 11.076 C 250.168 11.244,247.973 17.749,247.791 17.931 C 247.754 17.969,247.121 17.738,246.386 17.419 C 240.357 14.807,234.131 15.394,230.881 18.881 C 226.938 23.111,227.085 33.294,231.147 37.345 C 234.415 40.604,241.507 41.174,247.186 38.635 C 248.588 38.008,248.290 37.647,249.657 41.628 L 250.805 44.968 249.778 45.468 C 244.530 48.021,235.458 48.486,229.929 46.486 C 222.168 43.677,218.070 35.319,219.308 24.823 C 220.639 13.534,230.222 6.632,242.082 8.420 M324.128 9.165 L 330.173 9.167 330.128 12.708 L 330.083 16.250 321.542 16.293 L 313.000 16.336 313.000 20.002 L 313.000 23.667 320.583 23.667 L 328.167 23.667 328.167 27.165 L 328.167 30.663 320.625 30.707 L 313.083 30.750 313.039 35.292 L 312.995 39.833 322.164 39.833 L 331.333 39.833 331.333 43.417 L 331.333 47.000 317.833 47.000 L 304.332 47.000 304.374 28.125 L 304.417 9.250 310.417 9.155 C 313.717 9.102,316.792 9.083,317.250 9.112 C 317.708 9.140,320.804 9.164,324.128 9.165 M167.922 9.414 C 177.134 10.556,181.503 14.777,181.499 22.532 C 181.495 31.267,175.979 35.523,164.083 35.971 L 161.083 36.083 161.040 42.375 L 160.996 48.667 156.164 48.667 L 151.332 48.667 151.374 29.458 L 151.417 10.250 153.588 9.887 C 157.918 9.163,164.220 8.955,167.922 9.414 M270.417 17.737 C 275.104 18.566,277.782 20.920,278.780 25.088 C 279.087 26.369,279.334 45.899,279.048 46.186 C 278.794 46.440,272.952 47.336,270.333 47.523 C 259.746 48.279,254.783 45.573,254.390 38.833 C 254.080 33.535,257.289 30.168,263.448 29.330 C 264.960 29.125,269.549 29.190,270.816 29.435 L 271.383 29.545 271.295 28.458 C 271.124 26.324,269.906 24.913,267.870 24.490 C 265.923 24.086,261.474 24.396,259.033 25.105 C 257.944 25.422,258.126 25.763,257.600 22.417 C 257.355 20.858,257.119 19.420,257.077 19.221 C 257.015 18.931,257.107 18.825,257.542 18.685 C 260.757 17.652,267.241 17.174,270.417 17.737 M382.043 17.972 C 385.687 18.954,388.061 21.100,389.008 24.265 C 389.402 25.580,389.403 25.608,389.459 35.930 L 389.514 46.277 386.965 46.723 C 382.693 47.470,381.886 47.546,378.000 47.565 C 368.943 47.609,365.176 45.101,364.877 38.830 C 364.634 33.712,367.396 30.454,372.774 29.518 C 373.985 29.307,379.571 29.234,380.894 29.412 L 381.871 29.543 381.755 28.647 C 381.456 26.315,380.558 25.102,378.742 24.574 C 376.990 24.065,372.761 24.272,369.880 25.009 C 368.335 25.405,368.576 25.770,367.988 22.151 C 367.390 18.471,367.276 18.807,369.275 18.358 C 373.498 17.410,379.308 17.234,382.043 17.972 M161.107 17.782 C 161.044 17.845,160.998 20.067,161.005 22.720 L 161.018 27.543 163.717 27.459 C 169.626 27.277,171.425 26.098,171.411 22.417 C 171.401 19.650,170.085 18.276,167.019 17.833 C 165.749 17.649,161.279 17.610,161.107 17.782 M342.673 18.875 C 343.784 23.101,347.458 34.801,348.233 36.583 L 348.451 37.083 348.715 36.464 C 349.264 35.173,352.026 26.578,353.202 22.500 L 354.428 18.250 358.644 18.205 L 362.861 18.161 362.746 18.705 C 361.889 22.762,356.189 37.780,352.877 44.708 L 351.781 47.000 348.332 47.000 L 344.884 47.000 343.794 44.708 C 340.734 38.274,335.833 25.676,335.833 24.243 C 335.833 24.033,335.766 23.836,335.683 23.806 C 335.556 23.758,333.833 18.616,333.833 18.283 C 333.833 18.219,335.780 18.167,338.160 18.167 L 342.487 18.167 342.673 18.875 M194.055 20.500 C 194.521 22.221,195.461 25.314,196.815 29.583 C 197.741 32.505,199.193 36.529,199.288 36.435 C 199.393 36.329,201.417 29.920,201.925 28.083 C 202.153 27.258,202.813 24.821,203.392 22.667 L 204.444 18.750 209.222 18.706 C 213.588 18.665,214.000 18.686,214.000 18.939 C 214.000 20.048,209.994 31.994,207.329 38.832 C 201.347 54.184,198.631 57.820,192.500 58.693 C 189.318 59.145,183.358 58.084,183.587 57.105 C 183.632 56.910,184.005 55.220,184.415 53.351 C 185.292 49.347,185.070 49.710,186.366 50.166 C 189.884 51.403,192.654 50.650,194.100 48.064 L 194.690 47.009 193.427 44.345 C 191.448 40.167,191.077 39.333,189.391 35.250 C 187.332 30.263,183.525 19.031,183.800 18.755 C 183.852 18.704,186.073 18.682,188.737 18.706 L 193.581 18.750 194.055 20.500 M265.286 34.838 C 262.368 35.575,261.415 39.057,263.739 40.493 C 264.967 41.252,270.234 41.660,271.188 41.070 C 271.420 40.927,271.372 35.043,271.137 34.898 C 270.832 34.710,265.992 34.660,265.286 34.838 M375.417 34.933 C 373.479 35.547,372.711 36.743,373.016 38.672 C 373.342 40.735,375.378 41.530,379.583 41.235 L 381.750 41.083 381.796 38.096 C 381.823 36.275,381.777 35.043,381.676 34.942 C 381.374 34.641,376.362 34.633,375.417 34.933 " stroke="none" fill="#fbfbfb" fill-rule="evenodd"></path></g></svg>